<svg width="266" height="62" viewBox="0 0 266 62" fill="none" xmlns="http://www.w3.org/2000/svg">
<g clip-path="url(#clip0_102_191)">
<path fill-rule="evenodd" clip-rule="evenodd" d="M247.394 19.5953V13.2709H250.2C250.824 13.2709 251.24 13.3746 251.551 13.5819C251.967 13.7893 252.175 14.3077 252.175 14.9298C252.175 15.3445 252.175 15.6555 251.967 15.8629C251.863 16.0702 251.655 16.2776 251.344 16.485C251.655 16.6923 251.863 16.8997 251.967 17.0033C252.071 17.2107 252.071 17.5217 252.071 18.0401C252.071 18.4549 252.071 18.7659 252.175 18.8696C252.175 19.0769 252.279 19.1806 252.487 19.2843V19.4916H251.447C251.344 19.1806 251.24 18.8696 251.24 18.4549C251.24 17.8328 251.24 17.5217 251.136 17.4181C251.032 17.0033 250.72 16.8997 250.2 16.8997H248.121V19.5953H247.394ZM250.2 13.9967H248.225V16.1739H250.304C251.032 16.1739 251.344 15.8629 251.447 15.2408V15.0334C251.344 14.3077 250.928 13.9967 250.2 13.9967Z" fill="white"/>
<path fill-rule="evenodd" clip-rule="evenodd" d="M110.184 21.5652L103.739 23.7425C103.115 22.291 102.388 21.3579 101.556 20.7358C100.724 20.1137 99.581 19.9064 98.1258 19.9064C95.1113 19.9064 93.6561 20.9431 93.6561 22.913C93.6561 23.7425 93.9679 24.4682 94.6955 24.9866C95.4232 25.4013 96.5666 25.8161 98.3337 26.1271C102.595 26.9565 105.506 27.8896 107.169 29.1338C109.768 31 111.119 33.4883 111.119 36.7023C111.119 39.9164 109.872 42.612 107.481 44.5819C104.986 46.5518 101.764 47.485 97.606 47.485C90.5377 47.485 86.1719 44.4783 84.4048 38.4649L91.4732 36.806C92.3047 39.9164 94.5916 41.3679 98.1258 41.3679C101.66 41.3679 103.219 40.2274 103.219 37.8428C103.219 36.9097 102.803 36.184 101.972 35.6656C101.14 35.1472 99.685 34.6288 97.5021 34.214C93.3442 33.3846 90.3298 32.1405 88.5627 30.689C86.7956 29.2375 85.964 27.0602 85.964 24.1572C85.964 21.0468 87.0035 18.6622 89.1863 16.6923C91.3692 14.7224 94.1758 13.7893 97.71 13.7893C100.932 13.7893 103.531 14.4114 105.506 15.6555C107.689 16.8997 109.144 18.8696 110.184 21.5652Z" fill="white"/>
<path fill-rule="evenodd" clip-rule="evenodd" d="M145.318 20.5284H129.726V27.2676H141.991V33.3846H129.726V40.4348H145.318V46.9666H121.93V14.4114H145.318V20.5284Z" fill="white"/>
<path fill-rule="evenodd" clip-rule="evenodd" d="M163.404 34.0067V46.8629H155.712V14.4114H170.057C173.903 14.4114 176.71 15.1371 178.477 16.5886C180.764 18.4548 181.907 20.9431 181.907 24.1572C181.907 28.097 180.036 30.8963 176.294 32.5552L182.323 46.8629H173.903L168.914 34.0067H163.404ZM163.404 20.2174V28.5117H168.082C170.057 28.5117 171.408 28.3043 172.136 27.786C173.383 26.9565 174.007 25.8161 174.007 24.1572C174.007 22.8094 173.487 21.7726 172.448 21.0468C171.928 20.7358 171.408 20.4247 170.889 20.3211C170.369 20.2174 169.329 20.2174 167.77 20.2174H163.404Z" fill="white"/>
<path fill-rule="evenodd" clip-rule="evenodd" d="M217.041 20.5284H201.449V27.2676H213.715V33.3846H201.449V40.4348H217.041V46.9666H193.653V14.4114H217.041V20.5284Z" fill="white"/>
<path fill-rule="evenodd" clip-rule="evenodd" d="M235.128 40.4348H248.121V46.9666H227.436V14.4114H235.128V40.4348Z" fill="white"/>
<path d="M266 0V62H0V0H266ZM263.297 2.69565H2.70262V59.408H263.297V2.69565Z" fill="white"/>
<path fill-rule="evenodd" clip-rule="evenodd" d="M245.626 16.3813C245.626 18.6622 247.497 20.5284 249.784 20.5284C252.071 20.5284 253.942 18.6622 253.942 16.3813C253.942 14.1003 252.071 12.2341 249.784 12.2341C247.497 12.2341 245.626 14.1003 245.626 16.3813ZM244.587 16.3813C244.587 13.4783 246.978 11.1973 249.784 11.1973C252.591 11.1973 254.982 13.5819 254.982 16.3813C254.982 19.1806 252.591 21.5652 249.784 21.5652C246.978 21.6689 244.587 19.2843 244.587 16.3813Z" fill="white"/>
</g>
<rect x="0.5" y="0.5" width="265" height="61" stroke="white"/>
<defs>
<clipPath id="clip0_102_191">
<rect width="266" height="62" fill="white"/>
</clipPath>
</defs>
</svg>
